<?xml version="1.0" encoding="iso-8859-1"?>
<!-- Generator: Adobe Illustrator 19.0.0, SVG Export Plug-In . SVG Version: 6.00 Build 0)  -->
<svg xmlns="http://www.w3.org/2000/svg" xmlns:xlink="http://www.w3.org/1999/xlink" version="1.1" id="Capa_1" x="0px" y="0px" viewBox="0 0 512 512" style="enable-background:new 0 0 512 512;" xml:space="preserve">
<circle style="fill:#F5385D;" cx="255.997" cy="288.45" r="165.171"/>
<path style="fill:#F5385D;" d="M156.452,246.576c0-44.429,17.547-84.757,46.083-114.442  c-64.978,22.22-111.699,83.809-111.699,156.315c0,91.219,73.948,165.165,165.168,165.165c46.79,0,89.031-19.461,119.084-50.725  C267.943,439.528,156.452,359.686,156.452,246.576z"/>
<path style="fill:#F5385D;" d="M379.557,15.855l15.058,42.663h35.658c6.903,0,12.501,5.598,12.501,12.501  c0,6.904-5.597,12.501-12.501,12.501h-35.658l-15.058,42.663c-2.088,5.918-8.24,9.37-14.379,8.069  c-6.055-1.281-10.361-6.853-9.872-13.206l2.942-37.525h-26.136l-7.815,12.231c-3.717,5.817-11.446,7.521-17.265,3.804  c-5.816-3.718-7.522-11.443-3.804-17.265l7.2-11.272l-7.2-11.271c-3.719-5.824-2.009-13.551,3.804-17.265  c5.818-3.717,13.548-2.014,17.265,3.804l7.815,12.23h26.136l-2.942-37.523c-0.495-6.229,3.715-11.903,9.872-13.208  C371.317,6.485,377.468,9.938,379.557,15.855z"/>
<path style="fill:#F5385D;" d="M442.32,67.72c-4.159,4.517-13.651,3.299-13.651,3.299H310.431  c-7.63,11.944-9.169,13.411-9.169,17.989c0,12.402,16.303,17.282,23.037,6.742l7.815-12.231h26.136  c-3.129,39.909-2.981,37.752-2.981,38.513c0,13.949,19.637,17.338,24.29,4.15l15.058-42.663h35.658  C438.424,83.52,444.523,75.784,442.32,67.72z"/>
<path d="M473.014,280.346c-4.14-0.007-7.505,3.345-7.512,7.488c-0.184,115.155-93.19,209.164-209.836,209.164  c-115.519-0.185-209.351-94.317-209.166-209.836c0.182-112.761,89.883-204.84,201.607-209.001l-12.412,10.48  c-3.165,2.672-3.564,7.404-0.892,10.569c2.672,3.166,7.405,3.564,10.57,0.893l28.255-23.856c3.54-2.988,3.547-8.448,0.018-11.446  l-28.179-23.945c-3.156-2.683-7.89-2.301-10.573,0.858c-2.682,3.156-2.298,7.891,0.859,10.572l12.761,10.844  C128.37,66.983,31.695,165.42,31.498,287.139C31.402,347.105,54.665,403.519,97,445.99C138.097,487.22,194.058,512,256.011,512  c122.669,0,224.291-98.999,224.491-224.142C480.509,283.716,477.156,280.353,473.014,280.346z"/>
<path d="M302.997,105.86c9.296,5.938,21.686,3.206,27.624-6.086l5.602-8.77h13.915c-2.505,31.954-2.37,29.901-2.37,31.012  c0,10.901,8.921,19.99,19.98,19.99c8.32-0.001,16.023-5.239,18.882-13.344l13.292-37.658h30.352  c11.029,0,20.001-8.973,20.001-20.001s-8.973-20.001-20.001-20.001h-30.352L386.63,13.342c-3.329-9.435-13.222-14.982-23.007-12.91  c-9.706,2.057-16.588,11.117-15.794,21.131l2.308,29.438h-13.915l-5.602-8.769c-10.742-16.812-36.857-9.097-36.857,10.78  c0,7.064,3.115,10.707,7.769,17.989l-4.622,7.234C291.027,87.453,293.576,99.838,302.997,105.86z M316.751,66.965l-7.199-11.269  c-1.503-2.355-0.79-5.431,1.52-6.907c2.322-1.483,5.421-0.803,6.906,1.521l7.814,12.23c1.378,2.156,3.761,3.462,6.32,3.462h26.136  c4.368,0,7.82-3.726,7.477-8.087c-0.023-0.299-2.958-37.625-2.958-37.925c0.001-5.576,7.861-6.912,9.717-1.656l15.058,42.663  c1.058,2.999,3.893,5.004,7.072,5.004h35.658c2.757,0,5,2.243,5,5s-2.243,5-5,5h-35.658c-3.18,0-6.014,2.005-7.072,5.004  l-15.058,42.664c-1.933,5.48-10.146,3.733-9.7-2.056c3.169-40.418,3.941-39.993,0.972-43.204c-1.42-1.535-3.416-2.408-5.507-2.408  h-26.136c-2.56,0-4.942,1.306-6.32,3.462l-7.814,12.231c-2.686,4.204-9.216,2.277-9.216-2.704c0-1.925,0.268-1.866,7.989-13.951  C318.325,72.578,318.325,69.427,316.751,66.965z"/>
<path d="M380.664,191.905c2.539,3.273,7.25,3.869,10.524,1.331c3.273-2.538,3.869-7.25,1.331-10.523  c-32.842-42.351-82.507-66.948-136.522-66.946c-95.206,0.004-172.661,77.46-172.661,172.667  c0,95.127,77.378,172.665,172.668,172.665c126.679,0,210.627-132.838,155.774-247.232c-1.791-3.734-6.271-5.312-10.006-3.52  c-3.735,1.791-5.311,6.271-3.52,10.007c9.153,19.087,14.255,39.433,15.231,60.579h-63.28  c-1.632-71.413-25.093-120.005-47.673-143.217C333.141,147.107,360.374,165.743,380.664,191.905z M263.501,445.374v-149.44h71.698  C333.348,373.622,302.079,437.915,263.501,445.374z M248.5,445.374c-38.561-7.454-69.846-71.689-71.699-149.44H248.5V445.374z   M176.802,280.933c1.851-77.69,33.118-141.984,71.699-149.442v149.442H176.802z M209.387,137.803  c-22.654,23.345-45.962,71.998-47.588,143.13H98.518C101.692,213.503,147.419,157.019,209.387,137.803z M98.518,295.934h63.281  c1.625,71.085,24.906,119.754,47.588,143.129C147.419,419.846,101.692,363.364,98.518,295.934z M302.61,439.065  c22.667-23.357,45.966-72.041,47.591-143.13h63.283C410.311,363.366,364.582,419.85,302.61,439.065z M335.199,280.933h-71.698  V131.491C302.042,138.944,333.346,203.144,335.199,280.933z"/>
<g>
</g>
<g>
</g>
<g>
</g>
<g>
</g>
<g>
</g>
<g>
</g>
<g>
</g>
<g>
</g>
<g>
</g>
<g>
</g>
<g>
</g>
<g>
</g>
<g>
</g>
<g>
</g>
<g>
</g>
</svg>
